<svg version="1.1" id="Layer_1" xmlns="http://www.w3.org/2000/svg" xmlns:xlink="http://www.w3.org/1999/xlink" x="0px" y="0px" viewBox="0 0 400 400" style="enable-background:new 0 0 400 400;" xml:space="preserve">
<style type="text/css">
	.st0{fill:#1A1A1A;}
</style>
<g id="Layer_x0020_1">
	<polygon class="st0" points="162,190.4 11.9,324.5 11.9,90.2 	" id="id_101" style="fill: rgb(255, 181, 0);"></polygon>
	<path class="st0" d="M175.3,183.6L23.6,82.3h352.8l-152,101.4c-0.3,0.1-0.6,0.3-0.8,0.5c-0.2,0.1-0.4,0.3-0.5,0.4L200,200
		l-23.4-15.6C176.2,184,175.7,183.8,175.3,183.6z" id="id_102" style="fill: rgb(255, 181, 0);"></path>
	<path class="st0" d="M226.7,197.8l151.5,135.5H21.7l151.5-135.5l23.2,15.4c0.2,0.1,0.4,0.3,0.6,0.3c0.4,0.3,0.9,0.5,1.4,0.6
		c0.5,0.1,1.1,0.2,1.6,0.2c0.5,0,1-0.1,1.4-0.2c0.6-0.1,1.1-0.3,1.6-0.7c0.2-0.1,0.3-0.1,0.5-0.3L226.7,197.8L226.7,197.8z" id="id_103" style="fill: rgb(255, 187, 0);"></path>
	<polygon class="st0" points="388,90.2 388,324.5 238,190.4 	" id="id_104" style="fill: rgb(255, 187, 0);"></polygon>
</g>
</svg>